  0
SECTION
  2
ENTITIES
  0
LINE
8
L1
 10
-2.666
 20
-10.9
 30
0.0000
 11
2.846001
 21
2.321999
 31
0.0000
  0
LINE
8
L1
 10
2.846001
 20
2.321999
 30
0.0000
 11
3.133003
 21
3.010002
 31
0.0000
  0
LINE
8
L1
 10
3.133003
 20
3.010002
 30
0.0000
 11
2.517998
 21
3.388
 31
0.0000
  0
LINE
8
L1
 10
2.517998
 20
3.388
 30
0.0000
 11
-9.310997
 21
10.67
 31
0.0000
  0
LINE
8
L1
 10
-9.310997
 20
10.67
 30
0.0000
 11
-9.842003
 21
11.17
 31
0.0000
  0
LINE
8
L1
 10
-9.842003
 20
11.17
 30
0.0000
 11
-20.064
 21
20.785
 31
0.0000
  0
LINE
8
L1
 10
-20.064
 20
20.785
 30
0.0000
 11
-30.286
 21
11.17
 31
0.0000
  0
LINE
8
L1
 10
-30.286
 20
11.17
 30
0.0000
 11
-30.817
 21
10.67
 31
0.0000
  0
LINE
8
L1
 10
-30.817
 20
10.67
 30
0.0000
 11
-31.432
 21
10.291
 31
0.0000
  0
LINE
8
L1
 10
-31.432
 20
10.291
 30
0.0000
 11
-43.262
 21
3.010002
 31
0.0000
  0
LINE
8
L1
 10
-43.262
 20
3.010002
 30
0.0000
 11
-42.975
 21
2.321999
 31
0.0000
  0
LINE
8
L1
 10
-42.975
 20
2.321999
 30
0.0000
 11
-37.462
 21
-10.9
 31
0.0000
  0
LINE
8
L1
 10
-37.462
 20
-10.9
 30
0.0000
 11
-37.31
 21
-11.634
 31
0.0000
  0
LINE
8
L1
 10
-37.31
 20
-11.634
 30
0.0000
 11
-34.4
 21
-25.751
 31
0.0000
  0
LINE
8
L1
 10
-34.4
 20
-25.751
 30
0.0000
 11
-33.692
 21
-25.676
 31
0.0000
  0
LINE
8
L1
 10
-33.692
 20
-25.676
 30
0.0000
 11
-20.064
 21
-24.233
 31
0.0000
  0
LINE
8
L1
 10
-20.064
 20
-24.233
 30
0.0000
 11
-19.356
 21
-24.308
 31
0.0000
  0
LINE
8
L1
 10
-19.356
 20
-24.308
 30
0.0000
 11
-5.726997
 21
-25.751
 31
0.0000
  0
LINE
8
L1
 10
-5.726997
 20
-25.751
 30
0.0000
 11
-2.817001
 21
-11.634
 31
0.0000
  0
LINE
8
L1
 10
-2.817001
 20
-11.634
 30
0.0000
 11
-2.666
 21
-10.9
 31
0.0000
  0
LINE
8
L1
 10
29.995
 20
-25.256
 30
0.0000
 11
32.933
 21
-23.862
 31
0.0000
  0
LINE
8
L1
 10
32.933
 20
-23.862
 30
0.0000
 11
33.086
 21
-23.79
 31
0.0000
  0
LINE
8
L1
 10
33.086
 20
-23.79
 30
0.0000
 11
35.79401
 21
-21.528
 31
0.0000
  0
LINE
8
L1
 10
35.79401
 20
-21.528
 30
0.0000
 11
35.935
 21
-21.411
 31
0.0000
  0
LINE
8
L1
 10
35.935
 20
-21.411
 30
0.0000
 11
36.05901
 21
-21.252
 31
0.0000
  0
LINE
8
L1
 10
36.05901
 20
-21.252
 30
0.0000
 11
38.433
 21
-18.208
 31
0.0000
  0
LINE
8
L1
 10
38.433
 20
-18.208
 30
0.0000
 11
38.534
 21
-18.016
 31
0.0000
  0
LINE
8
L1
 10
38.534
 20
-18.016
 30
0.0000
 11
40.483
 21
-14.307
 31
0.0000
  0
LINE
8
L1
 10
40.483
 20
-14.307
 30
0.0000
 11
41.931
 21
-10.074
 31
0.0000
  0
LINE
8
L1
 10
41.931
 20
-10.074
 30
0.0000
 11
42.006
 21
-9.853996
 31
0.0000
  0
LINE
8
L1
 10
42.006
 20
-9.853996
 30
0.0000
 11
42.052
 21
-9.614998
 31
0.0000
  0
LINE
8
L1
 10
42.052
 20
-9.614998
 30
0.0000
 11
42.94299
 21
-5.023003
 31
0.0000
  0
LINE
8
L1
 10
42.94299
 20
-5.023003
 30
0.0000
 11
43.245
 21
-0.2480011
 31
0.0000
  0
LINE
8
L1
 10
43.245
 20
-0.2480011
 30
0.0000
 11
43.261
 21
0
 31
0.0000
  0
LINE
8
L1
 10
43.261
 20
0
 30
0.0000
 11
43.245
 21
0.2480011
 31
0.0000
  0
LINE
8
L1
 10
43.245
 20
0.2480011
 30
0.0000
 11
42.94299
 21
5.023003
 31
0.0000
  0
LINE
8
L1
 10
42.94299
 20
5.023003
 30
0.0000
 11
42.052
 21
9.614998
 31
0.0000
  0
LINE
8
L1
 10
42.052
 20
9.614998
 30
0.0000
 11
42.006
 21
9.853996
 31
0.0000
  0
LINE
8
L1
 10
42.006
 20
9.853996
 30
0.0000
 11
41.931
 21
10.074
 31
0.0000
  0
LINE
8
L1
 10
41.931
 20
10.074
 30
0.0000
 11
40.483
 21
14.30701
 31
0.0000
  0
LINE
8
L1
 10
40.483
 20
14.30701
 30
0.0000
 11
38.534
 21
18.01601
 31
0.0000
  0
LINE
8
L1
 10
38.534
 20
18.01601
 30
0.0000
 11
38.433
 21
18.20799
 31
0.0000
  0
LINE
8
L1
 10
38.433
 20
18.20799
 30
0.0000
 11
36.05901
 21
21.252
 31
0.0000
  0
LINE
8
L1
 10
36.05901
 20
21.252
 30
0.0000
 11
35.935
 21
21.411
 31
0.0000
  0
LINE
8
L1
 10
35.935
 20
21.411
 30
0.0000
 11
35.79401
 21
21.528
 31
0.0000
  0
LINE
8
L1
 10
35.79401
 20
21.528
 30
0.0000
 11
33.086
 21
23.78999
 31
0.0000
  0
LINE
8
L1
 10
33.086
 20
23.78999
 30
0.0000
 11
30.14799
 21
25.183
 31
0.0000
  0
LINE
8
L1
 10
30.14799
 20
25.183
 30
0.0000
 11
29.995
 21
25.256
 31
0.0000
  0
LINE
8
L1
 10
29.995
 20
25.256
 30
0.0000
 11
26.938
 21
25.726
 31
0.0000
  0
LINE
8
L1
 10
26.938
 20
25.726
 30
0.0000
 11
26.77901
 21
25.75
 31
0.0000
  0
LINE
8
L1
 10
26.77901
 20
25.75
 30
0.0000
 11
23.72301
 21
25.28
 31
0.0000
  0
LINE
8
L1
 10
23.72301
 20
25.28
 30
0.0000
 11
23.564
 21
25.256
 31
0.0000
  0
LINE
8
L1
 10
23.564
 20
25.256
 30
0.0000
 11
23.411
 21
25.183
 31
0.0000
  0
LINE
8
L1
 10
23.411
 20
25.183
 30
0.0000
 11
20.47301
 21
23.78999
 31
0.0000
  0
LINE
8
L1
 10
20.47301
 20
23.78999
 30
0.0000
 11
20.332
 21
23.672
 31
0.0000
  0
LINE
8
L1
 10
20.332
 20
23.672
 30
0.0000
 11
17.62399
 21
21.411
 31
0.0000
  0
LINE
8
L1
 10
17.62399
 20
21.411
 30
0.0000
 11
15.24899
 21
18.367
 31
0.0000
  0
LINE
8
L1
 10
15.24899
 20
18.367
 30
0.0000
 11
15.12601
 21
18.20799
 31
0.0000
  0
LINE
8
L1
 10
15.12601
 20
18.20799
 30
0.0000
 11
13.17799
 21
14.5
 31
0.0000
  0
LINE
8
L1
 10
13.17799
 20
14.5
 30
0.0000
 11
13.076
 21
14.30701
 31
0.0000
  0
LINE
8
L1
 10
13.076
 20
14.30701
 30
0.0000
 11
11.628
 21
10.074
 31
0.0000
  0
LINE
8
L1
 10
11.628
 20
10.074
 30
0.0000
 11
11.553
 21
9.853996
 31
0.0000
  0
LINE
8
L1
 10
11.553
 20
9.853996
 30
0.0000
 11
10.662
 21
5.262001
 31
0.0000
  0
LINE
8
L1
 10
10.662
 20
5.262001
 30
0.0000
 11
10.616
 21
5.023003
 31
0.0000
  0
LINE
8
L1
 10
10.616
 20
5.023003
 30
0.0000
 11
10.314
 21
0.2480011
 31
0.0000
  0
LINE
8
L1
 10
10.314
 20
0.2480011
 30
0.0000
 11
10.298
 21
0
 31
0.0000
  0
LINE
8
L1
 10
10.298
 20
0
 30
0.0000
 11
10.314
 21
-0.2480011
 31
0.0000
  0
LINE
8
L1
 10
10.314
 20
-0.2480011
 30
0.0000
 11
10.616
 21
-5.023003
 31
0.0000
  0
LINE
8
L1
 10
10.616
 20
-5.023003
 30
0.0000
 11
11.507
 21
-9.614998
 31
0.0000
  0
LINE
8
L1
 10
11.507
 20
-9.614998
 30
0.0000
 11
11.553
 21
-9.853996
 31
0.0000
  0
LINE
8
L1
 10
11.553
 20
-9.853996
 30
0.0000
 11
13.00101
 21
-14.087
 31
0.0000
  0
LINE
8
L1
 10
13.00101
 20
-14.087
 30
0.0000
 11
13.076
 21
-14.307
 31
0.0000
  0
LINE
8
L1
 10
13.076
 20
-14.307
 30
0.0000
 11
15.02499
 21
-18.016
 31
0.0000
  0
LINE
8
L1
 10
15.02499
 20
-18.016
 30
0.0000
 11
15.12601
 21
-18.208
 31
0.0000
  0
LINE
8
L1
 10
15.12601
 20
-18.208
 30
0.0000
 11
15.24899
 21
-18.367
 31
0.0000
  0
LINE
8
L1
 10
15.24899
 20
-18.367
 30
0.0000
 11
17.62399
 21
-21.411
 31
0.0000
  0
LINE
8
L1
 10
17.62399
 20
-21.411
 30
0.0000
 11
20.332
 21
-23.672
 31
0.0000
  0
LINE
8
L1
 10
20.332
 20
-23.672
 30
0.0000
 11
20.47301
 21
-23.79
 31
0.0000
  0
LINE
8
L1
 10
20.47301
 20
-23.79
 30
0.0000
 11
20.62601
 21
-23.862
 31
0.0000
  0
LINE
8
L1
 10
20.62601
 20
-23.862
 30
0.0000
 11
23.564
 21
-25.256
 31
0.0000
  0
LINE
8
L1
 10
23.564
 20
-25.256
 30
0.0000
 11
26.621
 21
-25.727
 31
0.0000
  0
LINE
8
L1
 10
26.621
 20
-25.727
 30
0.0000
 11
26.77901
 21
-25.751
 31
0.0000
  0
LINE
8
L1
 10
26.77901
 20
-25.751
 30
0.0000
 11
29.836
 21
-25.28
 31
0.0000
  0
LINE
8
L1
 10
29.836
 20
-25.28
 30
0.0000
 11
29.995
 21
-25.256
 31
0.0000
  0
LINE
8
L1
 10
-2.666
 20
-64.46201
 30
0.0000
 11
2.846001
 21
-51.239
 31
0.0000
  0
LINE
8
L1
 10
2.846001
 20
-51.239
 30
0.0000
 11
3.133003
 21
-50.551
 31
0.0000
  0
LINE
8
L1
 10
3.133003
 20
-50.551
 30
0.0000
 11
2.517998
 21
-50.173
 31
0.0000
  0
LINE
8
L1
 10
2.517998
 20
-50.173
 30
0.0000
 11
-9.310997
 21
-42.891
 31
0.0000
  0
LINE
8
L1
 10
-9.310997
 20
-42.891
 30
0.0000
 11
-9.842003
 21
-42.391
 31
0.0000
  0
LINE
8
L1
 10
-9.842003
 20
-42.391
 30
0.0000
 11
-20.064
 21
-32.776
 31
0.0000
  0
LINE
8
L1
 10
-20.064
 20
-32.776
 30
0.0000
 11
-30.286
 21
-42.391
 31
0.0000
  0
LINE
8
L1
 10
-30.286
 20
-42.391
 30
0.0000
 11
-30.817
 21
-42.891
 31
0.0000
  0
LINE
8
L1
 10
-30.817
 20
-42.891
 30
0.0000
 11
-31.432
 21
-43.27
 31
0.0000
  0
LINE
8
L1
 10
-31.432
 20
-43.27
 30
0.0000
 11
-43.262
 21
-50.551
 31
0.0000
  0
LINE
8
L1
 10
-43.262
 20
-50.551
 30
0.0000
 11
-42.975
 21
-51.239
 31
0.0000
  0
LINE
8
L1
 10
-42.975
 20
-51.239
 30
0.0000
 11
-37.462
 21
-64.46201
 31
0.0000
  0
LINE
8
L1
 10
-37.462
 20
-64.46201
 30
0.0000
 11
-37.31
 21
-65.195
 31
0.0000
  0
LINE
8
L1
 10
-37.31
 20
-65.195
 30
0.0000
 11
-34.4
 21
-79.312
 31
0.0000
  0
LINE
8
L1
 10
-34.4
 20
-79.312
 30
0.0000
 11
-33.692
 21
-79.237
 31
0.0000
  0
LINE
8
L1
 10
-33.692
 20
-79.237
 30
0.0000
 11
-20.064
 21
-77.794
 31
0.0000
  0
LINE
8
L1
 10
-20.064
 20
-77.794
 30
0.0000
 11
-19.356
 21
-77.869
 31
0.0000
  0
LINE
8
L1
 10
-19.356
 20
-77.869
 30
0.0000
 11
-5.726997
 21
-79.312
 31
0.0000
  0
LINE
8
L1
 10
-5.726997
 20
-79.312
 30
0.0000
 11
-2.817001
 21
-65.195
 31
0.0000
  0
LINE
8
L1
 10
-2.817001
 20
-65.195
 30
0.0000
 11
-2.666
 21
-64.46201
 31
0.0000
  0
LINE
8
L1
 10
29.995
 20
-78.817
 30
0.0000
 11
32.933
 21
-77.423
 31
0.0000
  0
LINE
8
L1
 10
32.933
 20
-77.423
 30
0.0000
 11
33.086
 21
-77.351
 31
0.0000
  0
LINE
8
L1
 10
33.086
 20
-77.351
 30
0.0000
 11
35.79401
 21
-75.089
 31
0.0000
  0
LINE
8
L1
 10
35.79401
 20
-75.089
 30
0.0000
 11
35.935
 21
-74.972
 31
0.0000
  0
LINE
8
L1
 10
35.935
 20
-74.972
 30
0.0000
 11
36.05901
 21
-74.813
 31
0.0000
  0
LINE
8
L1
 10
36.05901
 20
-74.813
 30
0.0000
 11
38.433
 21
-71.769
 31
0.0000
  0
LINE
8
L1
 10
38.433
 20
-71.769
 30
0.0000
 11
38.534
 21
-71.577
 31
0.0000
  0
LINE
8
L1
 10
38.534
 20
-71.577
 30
0.0000
 11
40.483
 21
-67.868
 31
0.0000
  0
LINE
8
L1
 10
40.483
 20
-67.868
 30
0.0000
 11
41.931
 21
-63.635
 31
0.0000
  0
LINE
8
L1
 10
41.931
 20
-63.635
 30
0.0000
 11
42.006
 21
-63.415
 31
0.0000
  0
LINE
8
L1
 10
42.006
 20
-63.415
 30
0.0000
 11
42.052
 21
-63.176
 31
0.0000
  0
LINE
8
L1
 10
42.052
 20
-63.176
 30
0.0000
 11
42.94299
 21
-58.584
 31
0.0000
  0
LINE
8
L1
 10
42.94299
 20
-58.584
 30
0.0000
 11
43.245
 21
-53.809
 31
0.0000
  0
LINE
8
L1
 10
43.245
 20
-53.809
 30
0.0000
 11
43.261
 21
-53.561
 31
0.0000
  0
LINE
8
L1
 10
43.261
 20
-53.561
 30
0.0000
 11
43.245
 21
-53.313
 31
0.0000
  0
LINE
8
L1
 10
43.245
 20
-53.313
 30
0.0000
 11
42.94299
 21
-48.538
 31
0.0000
  0
LINE
8
L1
 10
42.94299
 20
-48.538
 30
0.0000
 11
42.052
 21
-43.946
 31
0.0000
  0
LINE
8
L1
 10
42.052
 20
-43.946
 30
0.0000
 11
42.006
 21
-43.707
 31
0.0000
  0
LINE
8
L1
 10
42.006
 20
-43.707
 30
0.0000
 11
41.931
 21
-43.487
 31
0.0000
  0
LINE
8
L1
 10
41.931
 20
-43.487
 30
0.0000
 11
40.483
 21
-39.254
 31
0.0000
  0
LINE
8
L1
 10
40.483
 20
-39.254
 30
0.0000
 11
38.534
 21
-35.545
 31
0.0000
  0
LINE
8
L1
 10
38.534
 20
-35.545
 30
0.0000
 11
38.433
 21
-35.353
 31
0.0000
  0
LINE
8
L1
 10
38.433
 20
-35.353
 30
0.0000
 11
36.05901
 21
-32.309
 31
0.0000
  0
LINE
8
L1
 10
36.05901
 20
-32.309
 30
0.0000
 11
35.935
 21
-32.15
 31
0.0000
  0
LINE
8
L1
 10
35.935
 20
-32.15
 30
0.0000
 11
35.79401
 21
-32.033
 31
0.0000
  0
LINE
8
L1
 10
35.79401
 20
-32.033
 30
0.0000
 11
33.086
 21
-29.771
 31
0.0000
  0
LINE
8
L1
 10
33.086
 20
-29.771
 30
0.0000
 11
30.14799
 21
-28.378
 31
0.0000
  0
LINE
8
L1
 10
30.14799
 20
-28.378
 30
0.0000
 11
29.995
 21
-28.305
 31
0.0000
  0
LINE
8
L1
 10
29.995
 20
-28.305
 30
0.0000
 11
26.938
 21
-27.835
 31
0.0000
  0
LINE
8
L1
 10
26.938
 20
-27.835
 30
0.0000
 11
26.77901
 21
-27.811
 31
0.0000
  0
LINE
8
L1
 10
26.77901
 20
-27.811
 30
0.0000
 11
23.72301
 21
-28.281
 31
0.0000
  0
LINE
8
L1
 10
23.72301
 20
-28.281
 30
0.0000
 11
23.564
 21
-28.305
 31
0.0000
  0
LINE
8
L1
 10
23.564
 20
-28.305
 30
0.0000
 11
23.411
 21
-28.378
 31
0.0000
  0
LINE
8
L1
 10
23.411
 20
-28.378
 30
0.0000
 11
20.47301
 21
-29.771
 31
0.0000
  0
LINE
8
L1
 10
20.47301
 20
-29.771
 30
0.0000
 11
20.332
 21
-29.889
 31
0.0000
  0
LINE
8
L1
 10
20.332
 20
-29.889
 30
0.0000
 11
17.62399
 21
-32.15
 31
0.0000
  0
LINE
8
L1
 10
17.62399
 20
-32.15
 30
0.0000
 11
15.24899
 21
-35.194
 31
0.0000
  0
LINE
8
L1
 10
15.24899
 20
-35.194
 30
0.0000
 11
15.12601
 21
-35.353
 31
0.0000
  0
LINE
8
L1
 10
15.12601
 20
-35.353
 30
0.0000
 11
13.17799
 21
-39.062
 31
0.0000
  0
LINE
8
L1
 10
13.17799
 20
-39.062
 30
0.0000
 11
13.076
 21
-39.254
 31
0.0000
  0
LINE
8
L1
 10
13.076
 20
-39.254
 30
0.0000
 11
11.628
 21
-43.487
 31
0.0000
  0
LINE
8
L1
 10
11.628
 20
-43.487
 30
0.0000
 11
11.553
 21
-43.707
 31
0.0000
  0
LINE
8
L1
 10
11.553
 20
-43.707
 30
0.0000
 11
10.662
 21
-48.299
 31
0.0000
  0
LINE
8
L1
 10
10.662
 20
-48.299
 30
0.0000
 11
10.616
 21
-48.538
 31
0.0000
  0
LINE
8
L1
 10
10.616
 20
-48.538
 30
0.0000
 11
10.314
 21
-53.313
 31
0.0000
  0
LINE
8
L1
 10
10.314
 20
-53.313
 30
0.0000
 11
10.298
 21
-53.561
 31
0.0000
  0
LINE
8
L1
 10
10.298
 20
-53.561
 30
0.0000
 11
10.314
 21
-53.809
 31
0.0000
  0
LINE
8
L1
 10
10.314
 20
-53.809
 30
0.0000
 11
10.616
 21
-58.584
 31
0.0000
  0
LINE
8
L1
 10
10.616
 20
-58.584
 30
0.0000
 11
11.507
 21
-63.176
 31
0.0000
  0
LINE
8
L1
 10
11.507
 20
-63.176
 30
0.0000
 11
11.553
 21
-63.415
 31
0.0000
  0
LINE
8
L1
 10
11.553
 20
-63.415
 30
0.0000
 11
13.00101
 21
-67.64799
 31
0.0000
  0
LINE
8
L1
 10
13.00101
 20
-67.64799
 30
0.0000
 11
13.076
 21
-67.868
 31
0.0000
  0
LINE
8
L1
 10
13.076
 20
-67.868
 30
0.0000
 11
15.02499
 21
-71.577
 31
0.0000
  0
LINE
8
L1
 10
15.02499
 20
-71.577
 30
0.0000
 11
15.12601
 21
-71.769
 31
0.0000
  0
LINE
8
L1
 10
15.12601
 20
-71.769
 30
0.0000
 11
15.24899
 21
-71.928
 31
0.0000
  0
LINE
8
L1
 10
15.24899
 20
-71.928
 30
0.0000
 11
17.62399
 21
-74.972
 31
0.0000
  0
LINE
8
L1
 10
17.62399
 20
-74.972
 30
0.0000
 11
20.332
 21
-77.233
 31
0.0000
  0
LINE
8
L1
 10
20.332
 20
-77.233
 30
0.0000
 11
20.47301
 21
-77.351
 31
0.0000
  0
LINE
8
L1
 10
20.47301
 20
-77.351
 30
0.0000
 11
20.62601
 21
-77.423
 31
0.0000
  0
LINE
8
L1
 10
20.62601
 20
-77.423
 30
0.0000
 11
23.564
 21
-78.817
 31
0.0000
  0
LINE
8
L1
 10
23.564
 20
-78.817
 30
0.0000
 11
26.621
 21
-79.28799
 31
0.0000
  0
LINE
8
L1
 10
26.621
 20
-79.28799
 30
0.0000
 11
26.77901
 21
-79.312
 31
0.0000
  0
LINE
8
L1
 10
26.77901
 20
-79.312
 30
0.0000
 11
29.836
 21
-78.841
 31
0.0000
  0
LINE
8
L1
 10
29.836
 20
-78.841
 30
0.0000
 11
29.995
 21
-78.817
 31
0.0000
  0
LINE
8
L1
 10
-2.666
 20
42.661
 30
0.0000
 11
2.846001
 21
55.883
 31
0.0000
  0
LINE
8
L1
 10
2.846001
 20
55.883
 30
0.0000
 11
3.133003
 21
56.571
 31
0.0000
  0
LINE
8
L1
 10
3.133003
 20
56.571
 30
0.0000
 11
2.517998
 21
56.94901
 31
0.0000
  0
LINE
8
L1
 10
2.517998
 20
56.94901
 30
0.0000
 11
-9.310997
 21
64.231
 31
0.0000
  0
LINE
8
L1
 10
-9.310997
 20
64.231
 30
0.0000
 11
-9.842003
 21
64.731
 31
0.0000
  0
LINE
8
L1
 10
-9.842003
 20
64.731
 30
0.0000
 11
-20.064
 21
74.34599
 31
0.0000
  0
LINE
8
L1
 10
-20.064
 20
74.34599
 30
0.0000
 11
-30.286
 21
64.731
 31
0.0000
  0
LINE
8
L1
 10
-30.286
 20
64.731
 30
0.0000
 11
-30.817
 21
64.231
 31
0.0000
  0
LINE
8
L1
 10
-30.817
 20
64.231
 30
0.0000
 11
-31.432
 21
63.85201
 31
0.0000
  0
LINE
8
L1
 10
-31.432
 20
63.85201
 30
0.0000
 11
-43.262
 21
56.571
 31
0.0000
  0
LINE
8
L1
 10
-43.262
 20
56.571
 30
0.0000
 11
-42.975
 21
55.883
 31
0.0000
  0
LINE
8
L1
 10
-42.975
 20
55.883
 30
0.0000
 11
-37.462
 21
42.661
 31
0.0000
  0
LINE
8
L1
 10
-37.462
 20
42.661
 30
0.0000
 11
-37.31
 21
41.927
 31
0.0000
  0
LINE
8
L1
 10
-37.31
 20
41.927
 30
0.0000
 11
-34.4
 21
27.81
 31
0.0000
  0
LINE
8
L1
 10
-34.4
 20
27.81
 30
0.0000
 11
-33.692
 21
27.88499
 31
0.0000
  0
LINE
8
L1
 10
-33.692
 20
27.88499
 30
0.0000
 11
-20.064
 21
29.328
 31
0.0000
  0
LINE
8
L1
 10
-20.064
 20
29.328
 30
0.0000
 11
-19.356
 21
29.25301
 31
0.0000
  0
LINE
8
L1
 10
-19.356
 20
29.25301
 30
0.0000
 11
-5.726997
 21
27.81
 31
0.0000
  0
LINE
8
L1
 10
-5.726997
 20
27.81
 30
0.0000
 11
-2.817001
 21
41.927
 31
0.0000
  0
LINE
8
L1
 10
-2.817001
 20
41.927
 30
0.0000
 11
-2.666
 21
42.661
 31
0.0000
  0
LINE
8
L1
 10
29.995
 20
28.30499
 30
0.0000
 11
32.933
 21
29.69901
 31
0.0000
  0
LINE
8
L1
 10
32.933
 20
29.69901
 30
0.0000
 11
33.086
 21
29.771
 31
0.0000
  0
LINE
8
L1
 10
33.086
 20
29.771
 30
0.0000
 11
35.79401
 21
32.033
 31
0.0000
  0
LINE
8
L1
 10
35.79401
 20
32.033
 30
0.0000
 11
35.935
 21
32.14999
 31
0.0000
  0
LINE
8
L1
 10
35.935
 20
32.14999
 30
0.0000
 11
36.05901
 21
32.30901
 31
0.0000
  0
LINE
8
L1
 10
36.05901
 20
32.30901
 30
0.0000
 11
38.433
 21
35.353
 31
0.0000
  0
LINE
8
L1
 10
38.433
 20
35.353
 30
0.0000
 11
38.534
 21
35.54601
 31
0.0000
  0
LINE
8
L1
 10
38.534
 20
35.54601
 30
0.0000
 11
40.483
 21
39.254
 31
0.0000
  0
LINE
8
L1
 10
40.483
 20
39.254
 30
0.0000
 11
41.931
 21
43.487
 31
0.0000
  0
LINE
8
L1
 10
41.931
 20
43.487
 30
0.0000
 11
42.006
 21
43.707
 31
0.0000
  0
LINE
8
L1
 10
42.006
 20
43.707
 30
0.0000
 11
42.052
 21
43.946
 31
0.0000
  0
LINE
8
L1
 10
42.052
 20
43.946
 30
0.0000
 11
42.94299
 21
48.53799
 31
0.0000
  0
LINE
8
L1
 10
42.94299
 20
48.53799
 30
0.0000
 11
43.245
 21
53.313
 31
0.0000
  0
LINE
8
L1
 10
43.245
 20
53.313
 30
0.0000
 11
43.261
 21
53.561
 31
0.0000
  0
LINE
8
L1
 10
43.261
 20
53.561
 30
0.0000
 11
43.245
 21
53.80901
 31
0.0000
  0
LINE
8
L1
 10
43.245
 20
53.80901
 30
0.0000
 11
42.94299
 21
58.584
 31
0.0000
  0
LINE
8
L1
 10
42.94299
 20
58.584
 30
0.0000
 11
42.052
 21
63.17599
 31
0.0000
  0
LINE
8
L1
 10
42.052
 20
63.17599
 30
0.0000
 11
42.006
 21
63.41499
 31
0.0000
  0
LINE
8
L1
 10
42.006
 20
63.41499
 30
0.0000
 11
41.931
 21
63.63499
 31
0.0000
  0
LINE
8
L1
 10
41.931
 20
63.63499
 30
0.0000
 11
40.483
 21
67.868
 31
0.0000
  0
LINE
8
L1
 10
40.483
 20
67.868
 30
0.0000
 11
38.534
 21
71.577
 31
0.0000
  0
LINE
8
L1
 10
38.534
 20
71.577
 30
0.0000
 11
38.433
 21
71.769
 31
0.0000
  0
LINE
8
L1
 10
38.433
 20
71.769
 30
0.0000
 11
36.05901
 21
74.813
 31
0.0000
  0
LINE
8
L1
 10
36.05901
 20
74.813
 30
0.0000
 11
35.935
 21
74.972
 31
0.0000
  0
LINE
8
L1
 10
35.935
 20
74.972
 30
0.0000
 11
35.79401
 21
75.089
 31
0.0000
  0
LINE
8
L1
 10
35.79401
 20
75.089
 30
0.0000
 11
33.086
 21
77.351
 31
0.0000
  0
LINE
8
L1
 10
33.086
 20
77.351
 30
0.0000
 11
30.14799
 21
78.744
 31
0.0000
  0
LINE
8
L1
 10
30.14799
 20
78.744
 30
0.0000
 11
29.995
 21
78.817
 31
0.0000
  0
LINE
8
L1
 10
29.995
 20
78.817
 30
0.0000
 11
26.938
 21
79.287
 31
0.0000
  0
LINE
8
L1
 10
26.938
 20
79.287
 30
0.0000
 11
26.77901
 21
79.311
 31
0.0000
  0
LINE
8
L1
 10
26.77901
 20
79.311
 30
0.0000
 11
23.72301
 21
78.841
 31
0.0000
  0
LINE
8
L1
 10
23.72301
 20
78.841
 30
0.0000
 11
23.564
 21
78.817
 31
0.0000
  0
LINE
8
L1
 10
23.564
 20
78.817
 30
0.0000
 11
23.411
 21
78.744
 31
0.0000
  0
LINE
8
L1
 10
23.411
 20
78.744
 30
0.0000
 11
20.47301
 21
77.351
 31
0.0000
  0
LINE
8
L1
 10
20.47301
 20
77.351
 30
0.0000
 11
20.332
 21
77.233
 31
0.0000
  0
LINE
8
L1
 10
20.332
 20
77.233
 30
0.0000
 11
17.62399
 21
74.972
 31
0.0000
  0
LINE
8
L1
 10
17.62399
 20
74.972
 30
0.0000
 11
15.24899
 21
71.92799
 31
0.0000
  0
LINE
8
L1
 10
15.24899
 20
71.92799
 30
0.0000
 11
15.12601
 21
71.769
 31
0.0000
  0
LINE
8
L1
 10
15.12601
 20
71.769
 30
0.0000
 11
13.17799
 21
68.061
 31
0.0000
  0
LINE
8
L1
 10
13.17799
 20
68.061
 30
0.0000
 11
13.076
 21
67.868
 31
0.0000
  0
LINE
8
L1
 10
13.076
 20
67.868
 30
0.0000
 11
11.628
 21
63.63499
 31
0.0000
  0
LINE
8
L1
 10
11.628
 20
63.63499
 30
0.0000
 11
11.553
 21
63.41499
 31
0.0000
  0
LINE
8
L1
 10
11.553
 20
63.41499
 30
0.0000
 11
10.662
 21
58.823
 31
0.0000
  0
LINE
8
L1
 10
10.662
 20
58.823
 30
0.0000
 11
10.616
 21
58.584
 31
0.0000
  0
LINE
8
L1
 10
10.616
 20
58.584
 30
0.0000
 11
10.314
 21
53.80901
 31
0.0000
  0
LINE
8
L1
 10
10.314
 20
53.80901
 30
0.0000
 11
10.298
 21
53.561
 31
0.0000
  0
LINE
8
L1
 10
10.298
 20
53.561
 30
0.0000
 11
10.314
 21
53.313
 31
0.0000
  0
LINE
8
L1
 10
10.314
 20
53.313
 30
0.0000
 11
10.616
 21
48.53799
 31
0.0000
  0
LINE
8
L1
 10
10.616
 20
48.53799
 30
0.0000
 11
11.507
 21
43.946
 31
0.0000
  0
LINE
8
L1
 10
11.507
 20
43.946
 30
0.0000
 11
11.553
 21
43.707
 31
0.0000
  0
LINE
8
L1
 10
11.553
 20
43.707
 30
0.0000
 11
13.00101
 21
39.474
 31
0.0000
  0
LINE
8
L1
 10
13.00101
 20
39.474
 30
0.0000
 11
13.076
 21
39.254
 31
0.0000
  0
LINE
8
L1
 10
13.076
 20
39.254
 30
0.0000
 11
15.02499
 21
35.54601
 31
0.0000
  0
LINE
8
L1
 10
15.02499
 20
35.54601
 30
0.0000
 11
15.12601
 21
35.353
 31
0.0000
  0
LINE
8
L1
 10
15.12601
 20
35.353
 30
0.0000
 11
15.24899
 21
35.194
 31
0.0000
  0
LINE
8
L1
 10
15.24899
 20
35.194
 30
0.0000
 11
17.62399
 21
32.14999
 31
0.0000
  0
LINE
8
L1
 10
17.62399
 20
32.14999
 30
0.0000
 11
20.332
 21
29.88901
 31
0.0000
  0
LINE
8
L1
 10
20.332
 20
29.88901
 30
0.0000
 11
20.47301
 21
29.771
 31
0.0000
  0
LINE
8
L1
 10
20.47301
 20
29.771
 30
0.0000
 11
20.62601
 21
29.69901
 31
0.0000
  0
LINE
8
L1
 10
20.62601
 20
29.69901
 30
0.0000
 11
23.564
 21
28.30499
 31
0.0000
  0
LINE
8
L1
 10
23.564
 20
28.30499
 30
0.0000
 11
26.621
 21
27.83501
 31
0.0000
  0
LINE
8
L1
 10
26.621
 20
27.83501
 30
0.0000
 11
26.77901
 21
27.81
 31
0.0000
  0
LINE
8
L1
 10
26.77901
 20
27.81
 30
0.0000
 11
29.836
 21
28.28101
 31
0.0000
  0
LINE
8
L1
 10
29.836
 20
28.28101
 30
0.0000
 11
29.995
 21
28.30499
 31
0.0000
  0
ENDSEC
  0
EOF
